<svg width="20" height="17" viewBox="0 0 20 17" fill="none" xmlns="http://www.w3.org/2000/svg">
<path d="M18.4806 3.12011H13.8006V1.85989C13.8006 0.839946 12.9606 0 11.8803 0H7.38034C6.30056 0 5.46013 0.839978 5.46013 1.85989V3.12011H0.780127C0.359924 3.12011 0 3.48004 0 3.90023V15.6602C0 16.0804 0.359935 16.4404 0.780127 16.4404H18.4801C18.9003 16.4404 19.2603 16.0804 19.2603 15.6602L19.2607 3.90023C19.2008 3.48045 18.8405 3.12011 18.4805 3.12011H18.4806ZM6.96056 1.92021C6.96056 1.74025 7.14052 1.56028 7.38076 1.56028H11.8808C12.1206 1.56028 12.301 1.74025 12.301 1.92021V3.18043H6.96096L6.96056 1.92021ZM17.7006 14.8802H1.50056L1.50014 4.62H17.7001L17.7006 14.8802Z" fill="#858585"/>
<path d="M7.44077 10.5001H8.88088V11.8201C8.88088 12.2403 9.24081 12.6002 9.66101 12.6002C10.0812 12.6002 10.4411 12.2403 10.4411 11.8201V10.5001H11.8812C12.3014 10.5001 12.6614 10.1402 12.6614 9.71998C12.6614 9.29979 12.3014 8.93985 11.8812 8.93985H10.4411V7.61985C10.4411 7.19965 10.0812 6.83972 9.66101 6.83972C9.24081 6.83972 8.88088 7.19966 8.88088 7.61985V8.93985H7.44077C7.02057 8.93985 6.66064 9.29979 6.66064 9.71998C6.66064 10.1402 7.021 10.5001 7.44077 10.5001Z" fill="#858585"/>
</svg>
