<svg width="24" height="24" viewBox="0 0 24 24" fill="none" xmlns="http://www.w3.org/2000/svg">
<path fill-rule="evenodd" clip-rule="evenodd" d="M11.4373 3.10724L2.38828 10.5902C2.23924 10.713 2.06719 10.8048 1.88221 10.8601C1.69724 10.9155 1.50306 10.9334 1.31109 10.9127C1.11911 10.892 0.933199 10.8332 0.764258 10.7397C0.595317 10.6462 0.446752 10.5199 0.327278 10.3682C0.0818671 10.0571 -0.0326415 9.66266 0.00806101 9.26852C0.0487635 8.87437 0.241472 8.51161 0.545278 8.25724L9.58928 0.774237C10.1963 0.273726 10.9585 0 11.7453 0C12.532 0 13.2943 0.273726 13.9013 0.774237L22.9503 8.25724C23.2541 8.51161 23.4468 8.87437 23.4875 9.26852C23.5282 9.66266 23.4137 10.0571 23.1683 10.3682C23.0489 10.5209 22.9002 10.648 22.7308 10.7421C22.5614 10.8363 22.3749 10.8954 22.1822 10.9161C21.9896 10.9368 21.7947 10.9186 21.6092 10.8627C21.4237 10.8067 21.2513 10.714 21.1023 10.5902L12.0533 3.10724C11.9667 3.03553 11.8577 2.99629 11.7453 2.99629C11.6328 2.99629 11.5239 3.03553 11.4373 3.10724ZM22.0264 15.0002V22.0002C22.0315 22.525 21.8282 23.0303 21.4611 23.4052C21.094 23.7802 20.5932 23.9942 20.0684 24.0002H14.6824C14.4201 23.9973 14.1695 23.8904 13.986 23.7029C13.8024 23.5154 13.7008 23.2626 13.7034 23.0002V17.5002C13.7058 17.2379 13.6041 16.9854 13.4206 16.7979C13.2371 16.6105 12.9868 16.5034 12.7244 16.5002H10.7664C10.5041 16.5034 10.2538 16.6105 10.0703 16.7979C9.88675 16.9854 9.78505 17.2379 9.78745 17.5002V23.0002C9.79011 23.2626 9.6885 23.5154 9.50492 23.7029C9.32135 23.8904 9.07084 23.9973 8.80845 24.0002H3.42245C2.89774 23.9942 2.39688 23.7802 2.02979 23.4052C1.6627 23.0303 1.45938 22.525 1.46445 22.0002V15.0002C1.47375 14.7003 1.54367 14.4053 1.66998 14.1331C1.7963 13.8609 1.9764 13.617 2.19945 13.4162L10.4994 6.41025C10.8481 6.1154 11.2899 5.95361 11.7464 5.95361C12.203 5.95361 12.6448 6.1154 12.9934 6.41025L21.2934 13.4102C21.5168 13.6119 21.6969 13.8568 21.8229 14.1301C21.9489 14.4034 22.0181 14.6994 22.0264 15.0002Z" fill="#FF537C"/>
</svg>
