<svg width="23" height="23" viewBox="0 0 23 23" fill="none" xmlns="http://www.w3.org/2000/svg">
<path d="M11.5 0C5.159 0 0 4.58378 0 10.218C0.0195524 11.5725 0.313936 12.9059 0.862457 14.1245C1.41098 15.3431 2.20032 16.4173 3.175 17.2717L0.875 22.2189C0.828406 22.3191 0.811904 22.4324 0.827788 22.5432C0.843671 22.6539 0.891151 22.7566 0.963627 22.8369C1.0361 22.9172 1.12998 22.9711 1.2322 22.9912C1.33442 23.0114 1.4399 22.9966 1.534 22.9491L7.683 19.8623C8.92391 20.2467 10.2089 20.4402 11.5 20.4372C17.841 20.4372 23 15.8534 23 10.218C23 4.5827 17.841 0 11.5 0Z" fill="#858585"/>
</svg>
